<svg xmlns="http://www.w3.org/2000/svg" width="161" height="176" fill="none"><path fill="#6B2FE2" d="M113.357.077h-66.16c-8.774 0-15.903 7.58-15.903 16.893v141.607c0 9.313 7.129 16.893 15.903 16.893h66.16c8.767 0 15.904-7.58 15.904-16.893V16.97c0-9.312-7.137-16.893-15.904-16.893M37.869 16.97c0-5.465 4.184-9.908 9.328-9.908h66.16c5.138 0 9.321 4.443 9.321 9.908v121.814H37.869zm84.809 141.607c0 5.457-4.183 9.901-9.321 9.901h-66.16c-5.144 0-9.328-4.444-9.328-9.901v-12.808h84.809z"/><path fill="#6B2FE2" d="M85.042 11.955h-9.536c-1.815 0-3.292 1.568-3.292 3.496s1.477 3.496 3.292 3.496h9.536c1.822 0 3.291-1.568 3.291-3.496s-1.469-3.496-3.291-3.496m-9.213 115.303H46.398c-1.815 0-3.292 1.56-3.292 3.488s1.477 3.496 3.292 3.496h29.43c1.816 0 3.284-1.568 3.284-3.496s-1.468-3.488-3.283-3.488m12.996 0h-1.722c-1.815 0-3.292 1.56-3.292 3.488s1.477 3.496 3.292 3.496h1.722c1.815 0 3.292-1.568 3.292-3.496s-1.477-3.488-3.292-3.488m-8.551 20.259c-4.807 0-8.713 4.158-8.713 9.263 0 5.106 3.906 9.255 8.713 9.255s8.72-4.149 8.72-9.255c0-5.105-3.914-9.263-8.72-9.263m0 11.534c-1.177 0-2.138-1.021-2.138-2.271 0-1.258.961-2.271 2.138-2.271 1.176 0 2.138 1.013 2.138 2.271 0 1.25-.962 2.271-2.138 2.271m60.184-91.148c-1.284-1.364-3.368-1.364-4.652 0s-1.285 3.578 0 4.942c7.567 8.038 7.567 21.117 0 29.155-1.285 1.364-1.285 3.578 0 4.942a3.2 3.2 0 0 0 2.322 1.021c.846 0 1.684-.343 2.33-1.021 10.128-10.767 10.128-28.272 0-39.039"/><path fill="#6B2FE2" d="M149.294 58.517c-1.284-1.364-3.368-1.364-4.652 0s-1.284 3.578 0 4.942c6.029 6.405 9.344 14.917 9.344 23.968s-3.315 17.563-9.344 23.959c-1.284 1.364-1.284 3.578 0 4.942a3.16 3.16 0 0 0 4.652 0c15.004-15.937 15.004-41.873 0-57.81M24.742 72.845c1.292-1.364 1.292-3.578.007-4.942-1.291-1.364-3.368-1.364-4.652 0-10.136 10.767-10.136 28.272 0 39.039a3.2 3.2 0 0 0 2.322 1.021 3.2 3.2 0 0 0 2.323-1.021c1.284-1.364 1.284-3.578 0-4.942-7.56-8.038-7.56-21.117 0-29.155"/><path fill="#6B2FE2" d="M6.562 87.427c0-9.06 3.322-17.563 9.344-23.968 1.284-1.364 1.284-3.578 0-4.942s-3.369-1.364-4.653 0c-15.004 15.938-15.004 41.874 0 57.811a3.16 3.16 0 0 0 4.653 0c1.284-1.364 1.284-3.578 0-4.942-6.022-6.396-9.344-14.908-9.344-23.96m106.626 8.602-15.38-16.337c-.846-.899-2.077-1.242-3.23-.89l-2.292.694a3.2 3.2 0 0 0-.923.457l-4.73 3.35c-5.713-4.249-10.697-9.64-14.603-15.783l3.36-3.57a3.6 3.6 0 0 0 .839-1.51l.653-2.435c.33-1.217.008-2.533-.838-3.431l-15.38-16.338c-.916-.972-2.277-1.282-3.484-.8l-2.615 1.037c-.438.18-.838.45-1.177.8a26 26 0 0 0-1.784 2.133c-7.59 10.096-6.821 24.604 1.784 33.753l25.04 26.59c4.645 4.934 10.759 7.45 16.896 7.45 5.244 0 10.505-1.83 14.88-5.547a23 23 0 0 0 2-1.903c.331-.351.592-.776.754-1.242l.984-2.785c.454-1.275.161-2.72-.754-3.693m-7.09 4.167c-6.883 5.84-16.78 5.244-23.017-1.381L58.04 72.216c-6.237-6.625-6.798-17.138-1.3-24.45q.38-.5.792-.98l12.351 13.128L65.5 64.57c-1.07 1.136-1.27 2.916-.477 4.289 4.968 8.634 11.82 16.1 19.818 21.582a3.14 3.14 0 0 0 3.614-.025l6.083-4.313 12.482 13.25q-.45.439-.923.842"/></svg>