<svg xmlns="http://www.w3.org/2000/svg" width="192" height="190" fill="none"><path fill="#6B2FE2" d="M78.926.269c11.221 0 21.37 4.827 28.709 12.638 7.353 7.796 11.898 18.576 11.898 30.496 0 11.904-4.545 22.684-11.898 30.495-7.339 7.811-17.488 12.639-28.71 12.639-11.206 0-21.354-4.828-28.708-12.64-7.34-7.81-11.884-18.59-11.884-30.495 0-11.92 4.545-22.7 11.884-30.495C57.57 5.096 67.719.27 78.926.27m24.605 16.997C97.237 10.58 88.53 6.456 78.926 6.456s-18.296 4.123-24.591 10.81C48.04 23.952 44.143 33.2 44.143 43.403s3.897 19.434 10.192 26.12C60.63 76.21 69.322 80.35 78.925 80.35c9.605 0 18.312-4.14 24.606-10.826s10.178-15.92 10.178-26.121c0-10.202-3.883-19.45-10.178-26.137m20.65 54.774c-1.604 0-2.913-1.391-2.913-3.094s1.309-3.093 2.913-3.093h34.65c1.28 0 2.354.874 2.751 2.077l11.751 29.902 17.237 11.858c.853.593 1.309 1.577 1.309 2.593h.015v53.929c0 1.703-1.295 3.093-2.912 3.093H27.376c-1.618 0-2.912-1.39-2.912-3.093v-15.451c0-1.718 1.294-3.093 2.912-3.093 1.603 0 2.897 1.375 2.897 3.093v12.358H186.07v-49.18l-16.532-11.373a2.98 2.98 0 0 1-1.22-1.485l-11.413-29.042z"/><path fill="#6B2FE2" d="M137.138 149.84c0 1.718-1.294 3.093-2.912 3.093-1.603 0-2.898-1.375-2.898-3.093V68.946c0-1.703 1.295-3.093 2.898-3.093 1.618 0 2.912 1.39 2.912 3.093z"/><path fill="#6B2FE2" d="M34.45 65.853c1.603 0 2.898 1.39 2.898 3.093s-1.294 3.093-2.898 3.093h-8.133v17.123c0 1.702-1.309 3.093-2.912 3.093s-2.912-1.39-2.912-3.093V68.946c0-1.703 1.309-3.093 2.912-3.093zM20.493 132.56c0-1.703 1.309-3.078 2.912-3.078s2.912 1.375 2.912 3.078v14.201h162.665c1.618 0 2.912 1.375 2.912 3.078 0 1.718-1.294 3.093-2.912 3.093H23.405c-1.603 0-2.912-1.375-2.912-3.093zM3.874 104.956c-1.604 0-2.913-1.375-2.913-3.094 0-1.703 1.31-3.077 2.913-3.077H41.23c1.617 0 2.911 1.374 2.911 3.077 0 1.719-1.294 3.094-2.912 3.094zm9.206 15.716c-1.603 0-2.912-1.391-2.912-3.093 0-1.703 1.31-3.094 2.912-3.094h21.43c1.602 0 2.911 1.391 2.911 3.094s-1.309 3.093-2.912 3.093zm45.49-92.423c-1.205-1.14-1.308-3.093-.235-4.359 1.06-1.281 2.898-1.39 4.104-.265L78.867 39.2l8.986-9.155c1.147-1.187 2.986-1.156 4.104.078 1.103 1.22 1.073 3.172-.089 4.36l-10.81 11.029c-1.073 1.218-2.882 1.312-4.059.187z"/><path fill="#FEFEFE" d="M55.07 186.021c10.3 0 18.65-8.869 18.65-19.809s-8.35-19.81-18.65-19.81-18.649 8.869-18.649 19.81 8.35 19.809 18.65 19.809"/><path fill="#6B2FE2" d="M55.07 143.309c5.957 0 11.354 2.562 15.252 6.718 3.897 4.14 6.31 9.858 6.31 16.185s-2.413 12.045-6.31 16.2c-3.898 4.14-9.295 6.703-15.252 6.703-5.942 0-11.34-2.563-15.237-6.703-3.897-4.155-6.31-9.873-6.31-16.2s2.413-12.045 6.31-16.185c3.898-4.156 9.295-6.718 15.237-6.718m11.134 11.077c-2.853-3.016-6.78-4.89-11.134-4.89-4.339 0-8.28 1.874-11.119 4.89-2.853 3.03-4.618 7.217-4.618 11.826 0 4.624 1.765 8.795 4.618 11.826 2.839 3.015 6.78 4.89 11.12 4.89 4.353 0 8.28-1.875 11.133-4.89 2.853-3.031 4.603-7.202 4.603-11.826 0-4.609-1.75-8.796-4.603-11.826"/><path fill="#FEFEFE" d="M158.773 186.021c10.299 0 18.649-8.869 18.649-19.809s-8.35-19.81-18.649-19.81-18.65 8.869-18.65 19.81 8.35 19.809 18.65 19.809"/><path fill="#6B2FE2" d="M158.773 143.309c5.941 0 11.339 2.562 15.237 6.718 3.897 4.14 6.309 9.858 6.309 16.185s-2.412 12.045-6.309 16.2c-3.898 4.14-9.296 6.703-15.237 6.703-5.957 0-11.355-2.563-15.252-6.703-3.898-4.155-6.31-9.873-6.31-16.2s2.412-12.045 6.31-16.185c3.897-4.156 9.295-6.718 15.252-6.718m11.118 11.077c-2.838-3.016-6.78-4.89-11.118-4.89-4.354 0-8.281 1.874-11.134 4.89-2.853 3.03-4.603 7.217-4.603 11.826 0 4.624 1.75 8.795 4.603 11.826 2.853 3.015 6.78 4.89 11.134 4.89 4.338 0 8.28-1.875 11.118-4.89 2.854-3.031 4.619-7.202 4.619-11.826 0-4.609-1.765-8.796-4.619-11.826m-114.821.765c2.883 0 5.486 1.25 7.369 3.249 1.882 2 3.044 4.765 3.044 7.812 0 3.046-1.162 5.811-3.044 7.811-1.883 2.015-4.486 3.249-7.369 3.249-2.868 0-5.471-1.234-7.354-3.249-1.882-2-3.044-4.765-3.044-7.811s1.162-5.812 3.044-7.812 4.486-3.249 7.354-3.249m3.25 7.608a4.45 4.45 0 0 0-3.25-1.422c-1.265 0-2.412.547-3.236 1.422a5.02 5.02 0 0 0-1.353 3.453 5.02 5.02 0 0 0 1.353 3.452c.824.875 1.971 1.422 3.236 1.422 1.28 0 2.427-.547 3.25-1.422a5.08 5.08 0 0 0 1.339-3.452 5.08 5.08 0 0 0-1.338-3.453"/><path fill="#6B2FE2" d="M158.773 155.151c2.867 0 5.471 1.25 7.353 3.249 1.883 2 3.045 4.765 3.045 7.812 0 3.046-1.162 5.811-3.045 7.811-1.882 2.015-4.486 3.249-7.353 3.249-2.883 0-5.486-1.234-7.369-3.249-1.882-2-3.044-4.765-3.044-7.811s1.162-5.812 3.044-7.812 4.486-3.249 7.369-3.249m3.235 7.608c-.823-.875-1.971-1.422-3.235-1.422-1.28 0-2.427.547-3.251 1.422a5.08 5.08 0 0 0-1.338 3.453c0 1.343.515 2.562 1.338 3.452a4.45 4.45 0 0 0 3.251 1.422c1.264 0 2.412-.547 3.235-1.422a5.02 5.02 0 0 0 1.353-3.452 5.02 5.02 0 0 0-1.353-3.453"/></svg>