<svg xmlns="http://www.w3.org/2000/svg" width="164" height="198" fill="none"><path fill="#6B2FE2" d="M103.855 77.06c.479 1.62-.365 3.347-1.89 3.856-1.525.515-3.151-.388-3.637-2.008L89.915 50.69c-1.185-2.986-2.546-5.189-4.242-6.655-1.626-1.399-3.661-2.189-6.27-2.43H16.53c-1.6 0-2.9-1.379-2.9-3.08 0-1.7 1.3-3.079 2.9-3.079h62.96l.227.014c3.876.328 6.995 1.566 9.598 3.816 2.47 2.135 4.368 5.12 5.924 9.044.076.154.139.308.183.475zm25.424-27.146c.479 1.62-.366 3.347-1.891 3.863-1.525.508-3.157-.389-3.636-2.009l-8.332-27.936a17.3 17.3 0 0 0-4.531-5.067c-1.853-1.393-3.996-2.457-6.384-3.247h-62.55c-1.601 0-2.9-1.38-2.9-3.08 0-1.693 1.299-3.072 2.9-3.072h62.959v.006q.407 0 .813.12c3.158.998 6.013 2.384 8.489 4.245a23.2 23.2 0 0 1 6.227 7.056c.17.255.309.542.403.857zM.29 60.565c0-1.7 1.298-5.39 2.899-5.39s2.899 1.38 2.899 3.08l-.498 89.337c0 1.701-.8 3.073-2.401 3.073s-2.9-1.372-2.9-3.073zm24.894 18.637c0-1.7 1.298-3.08 2.899-3.08s2.893 1.38 2.893 3.08v33.064c0 1.7-1.292 3.079-2.893 3.079s-2.899-1.379-2.899-3.079z"/><path fill="#6B2FE2" d="M11.306 48.173c-1.128 1.198-2.955 1.205-4.09.014-1.128-1.199-1.134-3.14-.012-4.345L43.29 5.235a2.764 2.764 0 0 1 4.083-.013c1.135 1.191 1.141 3.14.013 4.338zm10.456 1.407c2.861 0 5.451 1.238 7.33 3.226 1.871 1.995 3.03 4.746 3.03 7.786s-1.159 5.797-3.03 7.785c-1.879 1.995-4.469 3.227-7.33 3.227-2.868 0-5.458-1.232-7.33-3.227-1.878-1.988-3.037-4.746-3.037-7.785 0-3.04 1.16-5.791 3.037-7.786 1.872-1.988 4.462-3.227 7.33-3.227m3.227 7.577c-.826-.877-1.967-1.419-3.227-1.419-1.267 0-2.408.542-3.233 1.42a5.02 5.02 0 0 0-1.336 3.434c0 1.338.51 2.557 1.336 3.434.825.877 1.966 1.419 3.233 1.419 1.26 0 2.401-.542 3.227-1.42a5 5 0 0 0 1.342-3.434c0-1.338-.517-2.55-1.342-3.434m82.125 31.961c2.861 0 5.458 1.231 7.329 3.226 1.878 1.995 3.038 4.747 3.038 7.786s-1.16 5.797-3.038 7.786c-1.871 1.995-4.468 3.226-7.329 3.226s-5.452-1.231-7.33-3.226c-1.872-1.989-3.031-4.747-3.031-7.786 0-3.04 1.16-5.79 3.031-7.786 1.878-1.995 4.469-3.226 7.33-3.226m3.233 7.578c-.826-.877-1.973-1.42-3.233-1.42s-2.401.543-3.227 1.42a4.98 4.98 0 0 0-1.342 3.434c0 1.339.51 2.557 1.342 3.434.826.877 1.966 1.42 3.227 1.42s2.407-.543 3.233-1.42a5 5 0 0 0 1.336-3.434 5 5 0 0 0-1.336-3.434m-88.875 42.014c2.861 0 5.451 1.232 7.33 3.227 1.871 1.988 3.03 4.746 3.03 7.785 0 3.04-1.159 5.791-3.03 7.786-1.879 1.995-4.469 3.227-7.33 3.227-2.868 0-5.458-1.232-7.33-3.227-1.878-1.995-3.037-4.746-3.037-7.786s1.16-5.797 3.037-7.785c1.872-1.995 4.462-3.227 7.33-3.227m3.227 7.578c-.826-.877-1.967-1.419-3.227-1.419-1.267 0-2.408.542-3.233 1.419a5 5 0 0 0-1.343 3.434c0 1.339.517 2.551 1.343 3.435.825.877 1.966 1.419 3.233 1.419 1.26 0 2.401-.542 3.227-1.419a5.02 5.02 0 0 0 1.342-3.435 5 5 0 0 0-1.342-3.434"/><path fill="#6B2FE2" d="m91.352 85.347 35.564-39.236.018-.033.007.006c4.153-4.505 9.661-6.801 15.195-6.875 5.539-.073 11.111 2.089 15.365 6.5l.031.027-.006.007c4.241 4.412 6.403 10.263 6.472 16.134.07 5.89-1.966 11.802-6.119 16.32l-35.57 38.715-4.135-4.285 35.564-38.707c3.044-3.314 4.538-7.652 4.487-11.97-.05-4.31-1.638-8.609-4.752-11.835l-.037-.027.006-.007c-3.12-3.213-7.191-4.793-11.237-4.74-4.065.054-8.105 1.741-11.149 5.055l-.019.033-.006-.007L95.486 89.11zM6.977 44.157 41.129 6.982C45.23 2.517 50.683.242 56.153.168c5.47-.067 10.966 2.061 15.17 6.42l.032.02v.006a22.6 22.6 0 0 1 4.033 5.824h-6.85c-.385-.502-.795-.99-1.242-1.452l-.038-.02.006-.007c-3.063-3.16-7.064-4.706-11.041-4.66-3.99.054-7.96 1.714-10.954 4.968L10.941 48.635zm64.838-5.63-.12.134-35.438 38.566-5.477-2.303 32.961-36.397zM5.269 134.88l35.185-38.808c4.179-4.546 9.725-6.868 15.302-6.942 5.572-.067 11.168 2.102 15.447 6.54l.038.02-.006.007c4.26 4.439 6.434 10.316 6.504 16.227.07 5.918-1.98 11.863-6.151 16.409l-37.436 39.778-2.168-5.469 35.457-38.587c3.069-3.341 4.575-7.712 4.525-12.057-.05-4.351-1.651-8.676-4.79-11.929l-.038-.02.007-.007c-3.139-3.24-7.242-4.834-11.32-4.78-4.096.054-8.167 1.754-11.23 5.088L9.781 138.24z"/><path fill="#6B2FE2" d="M21.472 126.913c5.924 0 11.294 2.551 15.176 6.681 3.888 4.124 6.29 9.828 6.29 16.127s-2.402 11.996-6.29 16.127c-3.882 4.124-9.252 6.681-15.176 6.681-5.93 0-11.3-2.557-15.182-6.681C2.4 161.717 0 156.02 0 149.721s2.401-12.003 6.29-16.127c3.882-4.13 9.252-6.681 15.182-6.681m11.08 11.033c-2.837-3.013-6.757-4.874-11.08-4.874-4.33 0-8.25 1.861-11.086 4.874s-4.588 7.176-4.588 11.775 1.752 8.756 4.588 11.769 6.756 4.88 11.086 4.88c4.323 0 8.243-1.868 11.08-4.88 2.835-3.013 4.594-7.17 4.594-11.769s-1.759-8.763-4.595-11.775m74.563-60.096c5.93 0 11.3 2.557 15.182 6.68 3.888 4.131 6.29 9.828 6.29 16.128 0 6.299-2.402 11.996-6.29 16.126-3.882 4.124-9.252 6.681-15.182 6.681-5.924 0-11.294-2.557-15.183-6.681-3.882-4.13-6.283-9.827-6.283-16.126s2.401-11.997 6.284-16.127c3.888-4.124 9.258-6.681 15.182-6.681m11.085 11.032c-2.836-3.013-6.756-4.874-11.085-4.874-4.324 0-8.244 1.862-11.08 4.874s-4.594 7.176-4.594 11.776 1.758 8.763 4.594 11.775 6.756 4.874 11.08 4.874c4.329 0 8.249-1.861 11.085-4.874s4.589-7.176 4.589-11.775-1.752-8.764-4.589-11.776M21.762 37.784c5.924 0 11.294 2.557 15.176 6.68 3.888 4.131 6.29 9.835 6.29 16.128 0 6.3-2.402 12.003-6.29 16.127-3.883 4.13-9.252 6.68-15.176 6.68-5.93 0-11.3-2.55-15.182-6.68C2.69 72.595.29 66.89.29 60.592c0-6.293 2.401-11.997 6.29-16.127 3.882-4.124 9.251-6.681 15.182-6.681m11.08 11.039c-2.837-3.013-6.757-4.88-11.08-4.88-4.33 0-8.25 1.867-11.086 4.88s-4.588 7.17-4.588 11.769 1.752 8.763 4.588 11.775 6.756 4.874 11.086 4.874c4.323 0 8.243-1.861 11.08-4.874 2.835-3.012 4.594-7.176 4.594-11.775s-1.759-8.757-4.595-11.77"/><path fill="#6B2FE2" d="M53.242 147.586c-1.601 0-2.9-1.379-2.9-3.073 0-1.7 1.299-3.079 2.9-3.079h96.816c1.6 0 2.892 1.379 2.892 3.079a3.15 3.15 0 0 1-1.027 2.35l-25.373 26.423a2.8 2.8 0 0 1-2.029.877v.013H11.899c-1.601 0-2.9-1.379-2.9-3.079s1.299-3.08 2.9-3.08h111.456l19.619-20.431z"/><path fill="#6B2FE2" d="M7.638 165.667c0-1.7 1.299-3.079 2.9-3.079s2.892 1.379 2.892 3.079v18.999h107.158l23.142-23.41v-15.063c0-1.7 1.298-3.079 2.899-3.079s2.899 1.379 2.899 3.079v16.368h-.006c0 .81-.303 1.62-.901 2.223l-24.743 25.037c-.536.616-1.292 1.004-2.143 1.004H10.537c-1.6 0-2.899-1.379-2.899-3.079z"/><path fill="#6B2FE2" d="M124.634 187.746c0 1.7-1.298 3.079-2.899 3.079s-2.899-1.379-2.899-3.079v-16.649c0-1.701 1.298-3.08 2.899-3.08s2.899 1.379 2.899 3.08zM75.83 39.986l1.253-1.352 4.191.127 2.238 1.7-3.561 3.823c-.882.95-1.324 2.202-1.317 3.44.006 1.24.454 2.471 1.342 3.402l.025.013-.006.007a4.42 4.42 0 0 0 3.22 1.379 4.4 4.4 0 0 0 3.202-1.426l4.6-4.94 2.207 6.36-2.692 2.884c-1.997 2.15-4.644 3.234-7.298 3.254-2.64.013-5.293-1.038-7.31-3.153l-.02-.014v-.006c-2.01-2.122-3.024-4.927-3.043-7.732-.013-2.812.977-5.624 2.968-7.766m25.549-27.454 3.945-4.237.006-.027.007.007c1.997-2.136 4.638-3.214 7.285-3.234 2.641-.013 5.294 1.038 7.311 3.153l.019.014v.006c2.01 2.122 3.025 4.927 3.044 7.732.012 2.812-.977 5.63-2.969 7.773l-1.216 1.298-.725-2.443-2.477-2.845.296-.315c.883-.95 1.324-2.202 1.318-3.44-.007-1.24-.454-2.471-1.343-3.402l-.025-.013.006-.007a4.42 4.42 0 0 0-3.22-1.379 4.42 4.42 0 0 0-3.202 1.426l-.006.027-.006-.007-.007.007z"/><path fill="#FEFEFE" d="M24.497 194.454c4.125 0 7.468-3.552 7.468-7.933s-3.343-7.933-7.468-7.933-7.468 3.552-7.468 7.933 3.343 7.933 7.468 7.933"/><path fill="#6B2FE2" d="M24.497 175.508c2.861 0 5.451 1.232 7.33 3.227 1.871 1.988 3.031 4.746 3.031 7.786s-1.16 5.79-3.031 7.785c-1.879 1.989-4.469 3.22-7.33 3.22s-5.458-1.231-7.33-3.22c-1.878-1.995-3.037-4.746-3.037-7.785 0-3.04 1.16-5.798 3.037-7.786 1.872-1.995 4.469-3.227 7.33-3.227m3.227 7.578c-.826-.877-1.966-1.426-3.227-1.426-1.267 0-2.407.549-3.233 1.426a5 5 0 0 0-1.336 3.435c0 1.339.51 2.55 1.336 3.427s1.966 1.426 3.233 1.426c1.26 0 2.401-.549 3.227-1.426a4.96 4.96 0 0 0 1.342-3.427c0-1.346-.51-2.558-1.342-3.435"/><path fill="#FEFEFE" d="M109.88 194.454c4.125 0 7.469-3.552 7.469-7.933s-3.344-7.933-7.469-7.933c-4.124 0-7.468 3.552-7.468 7.933s3.344 7.933 7.468 7.933"/><path fill="#6B2FE2" d="M109.88 175.508c2.862 0 5.458 1.232 7.33 3.227 1.878 1.988 3.038 4.746 3.038 7.786s-1.16 5.79-3.038 7.785c-1.872 1.989-4.468 3.22-7.33 3.22s-5.451-1.231-7.329-3.22c-1.872-1.995-3.038-4.746-3.038-7.785 0-3.04 1.166-5.798 3.038-7.786 1.878-1.995 4.468-3.227 7.329-3.227m3.234 7.578c-.826-.877-1.973-1.426-3.234-1.426s-2.401.549-3.233 1.426a5 5 0 0 0-1.336 3.435c0 1.339.511 2.55 1.336 3.427.832.877 1.973 1.426 3.233 1.426s2.408-.549 3.234-1.426a5 5 0 0 0 1.336-3.427 5 5 0 0 0-1.336-3.435"/></svg>